<?xml version="1.0" encoding="UTF-8" standalone="no"?>
<!-- Generator: Adobe Illustrator 19.0.0, SVG Export Plug-In . SVG Version: 6.00 Build 0)  -->

<svg
   version="1.1"
   id="Layer_1"
   x="0px"
   y="0px"
   viewBox="0 0 450 450"
   xml:space="preserve"
   sodipodi:docname="anchor.svg"
   style="enable-background:new 0 0 450 450;"
   inkscape:version="1.1.1 (3bf5ae0d25, 2021-09-20)"
   xmlns:inkscape="http://www.inkscape.org/namespaces/inkscape"
   xmlns:sodipodi="http://sodipodi.sourceforge.net/DTD/sodipodi-0.dtd"
   xmlns="http://www.w3.org/2000/svg"
   xmlns:svg="http://www.w3.org/2000/svg"><defs
   id="defs43">
	
	
	
<pattern
   id="EMFhbasepattern"
   patternUnits="userSpaceOnUse"
   width="6"
   height="6"
   x="0"
   y="0" /></defs><sodipodi:namedview
   id="namedview41"
   pagecolor="#ffffff"
   bordercolor="#666666"
   borderopacity="1.0"
   inkscape:pageshadow="2"
   inkscape:pageopacity="0.0"
   inkscape:pagecheckerboard="0"
   showgrid="false"
   inkscape:zoom="1.4711111"
   inkscape:cx="130.17372"
   inkscape:cy="216.84291"
   inkscape:window-width="1536"
   inkscape:window-height="890"
   inkscape:window-x="-6"
   inkscape:window-y="-6"
   inkscape:window-maximized="1"
   inkscape:current-layer="Layer_1" />
<path
   d="M 249.213,0 H 28 V 450 H 358 V 108.787 Z M 258,51.213 300.787,94 H 258 Z M 58,420 V 30 h 170 v 94 h 100 v 296 z"
   id="path2" />
<g
   id="g10"
   transform="translate(-32)">
</g>
<g
   id="g12"
   transform="translate(-32)">
</g>
<g
   id="g14"
   transform="translate(-32)">
</g>
<g
   id="g16"
   transform="translate(-32)">
</g>
<g
   id="g18"
   transform="translate(-32)">
</g>
<g
   id="g20"
   transform="translate(-32)">
</g>
<g
   id="g22"
   transform="translate(-32)">
</g>
<g
   id="g24"
   transform="translate(-32)">
</g>
<g
   id="g26"
   transform="translate(-32)">
</g>
<g
   id="g28"
   transform="translate(-32)">
</g>
<g
   id="g30"
   transform="translate(-32)">
</g>
<g
   id="g32"
   transform="translate(-32)">
</g>
<g
   id="g34"
   transform="translate(-32)">
</g>
<g
   id="g36"
   transform="translate(-32)">
</g>
<g
   id="g38"
   transform="translate(-32)">
</g>
<path
   style="fill:#fff6d5;fill-opacity:1;stroke:#000000;stroke-width:3.63335;stroke-opacity:1"
   d="M 58.160067,224.94968 V 30.762349 h 84.596463 84.59646 v 46.624186 46.624185 h 49.98882 49.98881 V 271.57387 419.13701 H 192.74535 58.160067 Z"
   id="path7177" /><path
   style="fill:#fff6d5;fill-opacity:1;stroke:#000000;stroke-width:3.63335;stroke-opacity:1"
   d="M 258.11534,72.828834 V 52.409295 l 20.18779,20.170623 c 11.10329,11.093842 20.18779,20.282635 20.18779,20.419538 0,0.136904 -9.0845,0.248916 -20.18779,0.248916 h -20.18779 z"
   id="path7216" /><path
   style="fill:#ffffff;fill-opacity:1;fill-rule:evenodd;stroke:none"
   d="m 543.04484,213.67462 h 7.83525 v 20.62749 h -7.83525 z"
   id="path34259" /><g
   transform="matrix(0.15695452,0,0,-0.15695452,99.321133,372.86919)"
   id="g4"><path
     fill="currentColor"
     d="M 182.5,184.5 Q 38,309 38,510 H 92 Q 105,432 167.5,363 230,294 327,249 424,204 536,193 V 816 H 301 q -14,-20 -37,-31 -23,-11 -50,-11 -44,0 -74,29 -30,29 -30,71 0,42 30,71 30,29 74,29 29,0 52,-12.5 23,-12.5 38,-33.5 h 232 v 105 q -66,20 -109,74 -43,54 -43,121 0,56 29.5,103.5 29.5,47.5 79,75 49.5,27.5 107.5,27.5 58,0 107.5,-27.5 49.5,-27.5 79,-75 Q 816,1284 816,1228 q 0,-67 -43,-121 -43,-54 -109,-74 V 928 h 232 q 15,21 38,33.5 23,12.5 52,12.5 44,0 74,-29 30,-29 30,-71 0,-42 -30,-71 -30,-29 -74,-29 -27,0 -50,11 -23,11 -37,31 H 664 V 193 q 112,11 209,56 97,45 159.5,114 62.5,69 75.5,147 h 54 Q 1161,310 1016,185 871,60 626,-2 H 574 Q 327,60 182.5,184.5 Z m 343,973 Q 557,1128 600,1128 q 43,0 74.5,29.5 31.5,29.5 31.5,70.5 0,42 -31,72 -31,30 -75,30 -44,0 -75,-30 -31,-30 -31,-72 0,-41 31.5,-70.5 z"
     id="path2-5" /></g></svg>
