<?xml version="1.0" standalone="no"?>
<!DOCTYPE svg PUBLIC "-//W3C//DTD SVG 1.1//EN" "http://www.w3.org/Graphics/SVG/1.1/DTD/svg11.dtd" >
<svg xmlns="http://www.w3.org/2000/svg" xmlns:xlink="http://www.w3.org/1999/xlink" version="1.1" viewBox="-10 0 1610 2048">
  <g transform="matrix(1 0 0 -1 0 1638)">
   <path fill="currentColor"
d="M650 1160q0 -40 19 -76t55 -55t76 -19t76 19t55 55t19 76t-19 76t-55 55t-76 19t-76 -19t-55 -55t-19 -76zM750 915q-39 7 -76 27q-60 32 -92 92t-32 126t32 126t92 92t126 32t126 -32t92 -92t32 -126t-32 -126t-92 -92q-37 -20 -76 -27v-65h300v-100h-300v-658
q134 10 257 75q73 38 129 94l-104 104l368 85l-85 -368l-109 109q-65 -66 -150 -111q-170 -90 -356 -90t-355 90q-86 45 -151 111l-109 -109l-85 368l368 -85l-104 -104q56 -56 130 -94q122 -65 256 -75v658h-300v100h300v65z" />
  </g>

</svg>
